<?xml version="1.0" encoding="UTF-8"?>
<svg width="700pt" height="700pt" version="1.1" viewBox="0 0 700 700" xmlns="http://www.w3.org/2000/svg" xmlns:xlink="http://www.w3.org/1999/xlink">
  <path d="m373.73 373.52c18.492 0 36.207-5.6602 51.223-16.363 4.6719-3.332 5.7617-9.8242 2.4375-14.488-3.3359-4.6719-9.8242-5.7695-14.488-2.4375-11.484 8.1797-25.031 12.5-39.172 12.5-13.352 0-26.262-3.8789-37.332-11.23-4.7852-3.168-11.223-1.8672-14.402 2.918-3.168 4.7773-1.8672 11.23 2.918 14.402 14.48 9.6094 31.363 14.699 48.816 14.699z"/>
  <path d="m495.76 348.41c-4.0547-4.0547-10.641-4.0547-14.699 0-4.0586 4.0547-4.0547 10.633 0 14.699l34.316 34.324-29.289 29.297-34.316-34.324c-3.4062-3.4062-8.7148-4.0234-12.816-1.4922-11.324 6.9883-23.609 12.082-36.516 15.137-4.6836 1.1094-7.9961 5.2891-7.9961 10.109v48.527h-41.441v-48.527c0-4.8164-3.3008-9-7.9961-10.109-12.91-3.0508-25.188-8.1445-36.516-15.137-4.1016-2.5391-9.3984-1.9141-12.805 1.4922l-34.316 34.324-29.312-29.297 34.328-34.324c4.0547-4.0586 4.0547-10.641 0-14.699-4.0547-4.0586-10.629-4.0547-14.699 0l-41.668 41.672c-4.0547 4.0586-4.0547 10.641 0 14.699l43.988 43.996c4.0664 4.0547 10.641 4.0547 14.699 0l36.027-36.027c8.7617 4.7422 17.953 8.5508 27.492 11.391v50.938c0 5.7383 4.6484 10.395 10.391 10.395l62.215 0.003907c5.7383 0 10.391-4.6562 10.391-10.395v-50.945c9.5273-2.8398 18.73-6.6562 27.492-11.391l36.027 36.027c4.0547 4.0547 10.641 4.0547 14.699 0l44-43.996c4.0547-4.0547 4.0547-10.633 0-14.699z"/>
  <path d="m373.73 186.48c-18.504 0-36.219 5.6523-51.234 16.352-4.6719 3.332-5.7617 9.8164-2.4375 14.488 2.0312 2.8477 5.2266 4.3711 8.4766 4.3711 2.082 0 4.1953-0.625 6.0273-1.9297 11.473-8.1719 25.02-12.5 39.172-12.5 13.34 0 26.25 3.8867 37.32 11.23 4.7852 3.1797 11.234 1.8711 14.402-2.9102 3.1797-4.7773 1.8672-11.234-2.9062-14.41-14.492-9.6133-31.375-14.691-48.82-14.691z"/>
  <path d="m481.07 211.58c4.0547 4.0547 10.641 4.0547 14.699 0l41.68-41.672c4.0547-4.0586 4.0547-10.641 0-14.707l-44-43.996c-4.0547-4.0547-10.641-4.0547-14.699 0l-36.027 36.031c-8.7617-4.7422-17.965-8.5586-27.492-11.398v-50.93c0-5.7383-4.6484-10.391-10.391-10.391h-62.227c-5.7383 0-10.391 4.6484-10.391 10.391v50.93c-9.5391 2.8398-18.73 6.6562-27.492 11.398l-36.027-36.031c-4.0547-4.0547-10.629-4.0547-14.699 0l-43.988 43.996c-4.0547 4.0586-4.0547 10.641 0 14.707l41.668 41.672c2.043 2.0312 4.6953 3.0391 7.3516 3.0391 2.6641 0 5.3203-1.0156 7.3516-3.0391 4.0547-4.0586 4.0547-10.641 0-14.699l-34.328-34.324 29.312-29.301 34.316 34.328c3.4062 3.4062 8.7031 4.0195 12.805 1.4883 11.324-6.9883 23.609-12.082 36.516-15.133 4.6953-1.1094 7.9961-5.2969 7.9961-10.113v-48.523h41.441v48.523c0 4.8164 3.3125 9.0078 7.9961 10.113 12.91 3.0469 25.188 8.1445 36.516 15.133 4.1016 2.5391 9.4102 1.918 12.816-1.4883l34.316-34.328 29.289 29.301-34.316 34.324c-4.0547 4.0586-4.0547 10.637 0.007812 14.699z"/>
  <path d="m618.41 231.13h-423.66c-0.21484 0-0.42187 0.023438-0.63672 0.035157-0.11719 0.003906-0.22656 0.003906-0.34375 0.015625-0.78906 0.074218-1.5625 0.23828-2.293 0.48438-0.023437 0.011719-0.058594 0.011719-0.082031 0.023437l-113.18 38.449c-4.207 1.4336-7.0391 5.3945-7.0391 9.8398 0 4.4492 2.8359 8.4062 7.0391 9.8477l113.18 38.441c0.035156 0.011719 0.070312 0.023438 0.09375 0.027344 0.15625 0.058594 0.30859 0.097656 0.45312 0.13281 0.15625 0.046874 0.33203 0.085937 0.48828 0.12109 0.13281 0.027344 0.27344 0.058594 0.41016 0.09375 0.19141 0.035157 0.39844 0.0625 0.59375 0.085938 0.11719 0.015625 0.22656 0.035156 0.34375 0.039062 0.32031 0.027344 0.63672 0.050781 0.95703 0.050781h423.67c5.75 0 10.402-4.6562 10.402-10.391v-76.906c0-2.7539-1.0977-5.3945-3.0391-7.3516-1.9531-1.9414-4.5977-3.0391-7.3633-3.0391zm-98.914 76.906h-314.35v-56.113h314.35zm-335.14-52.004v23.941l-0.011719 23.941-70.465-23.941zm423.66 52.004h-67.742v-56.109l67.742-0.003907z"/>
</svg>
