<svg xmlns="http://www.w3.org/2000/svg" xmlns:xlink="http://www.w3.org/1999/xlink" fill="#474747" version="1.1" id="Layer_1" x="0px" y="0px" viewBox="0 0 502 501"><g>	<g>		<path d="M499.078,155.078L411.612,10.011c-4.267-5.333-10.667-9.6-18.133-9.6h-284.8c-7.467,0-13.867,3.2-18.133,9.6    L3.078,156.145c-4.267,7.467-4.267,17.067,1.067,23.467l229.333,313.6c4.267,5.333,10.667,8.533,17.067,8.533    c6.4,0,12.8-3.2,17.067-8.533l230.4-314.667C503.345,171.078,503.345,162.545,499.078,155.078z M250.545,445.212l-204.8-279.467    l74.667-123.733h260.267l74.667,123.733L250.545,445.212z"></path>	</g></g><g></g><g></g><g></g><g></g><g></g><g></g><g></g><g></g><g></g><g></g><g></g><g></g><g></g><g></g><g></g></svg>