<?xml version="1.0" encoding="UTF-8"?>
<svg width="700pt" height="700pt" version="1.1" viewBox="0 0 700 700" xmlns="http://www.w3.org/2000/svg" xmlns:xlink="http://www.w3.org/1999/xlink">
  <path d="m590.64 22.398h-91.273c-6.1758 0-11.199 5.0234-11.199 11.199v492.8c0 6.1758 5.0273 11.199 11.199 11.199h91.273c6.1758 0 11.199-5.0273 11.199-11.199v-492.8c0-6.1797-5.0273-11.203-11.199-11.203zm0 504h-12.797v-49.246c0-3.0938-2.5039-5.6016-5.6016-5.6016-3.0938 0-5.6016 2.5039-5.6016 5.6016l0.003906 49.246h-12.918v-61.598c0-3.0938-2.5039-5.6016-5.6016-5.6016-3.0938 0-5.6016 2.5039-5.6016 5.6016v61.602l-12.914-0.003906v-28c0-3.0938-2.5039-5.6016-5.6016-5.6016-3.0938 0-5.6016 2.5039-5.6016 5.6016v28h-19.043l0.003907-492.8 91.273-0.007812zm-25.059-432.29v-44.801c0-3.0938 2.5039-5.6016 5.6016-5.6016 3.0938 0 5.6016 2.5078 5.6016 5.6016v44.801c0 3.0938-2.5039 5.6016-5.6016 5.6016s-5.6016-2.5078-5.6016-5.6016zm-23.055-8.0703v-28.656c0-3.0938 2.5039-5.6016 5.6016-5.6016 3.0938 0 5.6016 2.5078 5.6016 5.6016v28.656c0 3.0938-2.5039 5.6016-5.6016 5.6016s-5.6016-2.5078-5.6016-5.6016zm16.797 307.57v-62.129c0-3.0938 2.5039-5.6016 5.6016-5.6016 3.0938 0 5.6016 2.5039 5.6016 5.6016v62.129c0 3.0938-2.5039 5.6016-5.6016 5.6016-3.0938 0-5.6016-2.5039-5.6016-5.6016zm-24.117-31.062v-38.168c0-3.0938 2.5039-5.6016 5.6016-5.6016 3.0938 0 5.6016 2.5039 5.6016 5.6016v38.168c0 3.0938-2.5039 5.6016-5.6016 5.6016-3.0938 0-5.6016-2.5039-5.6016-5.6016zm-16.797-111.21v-85.742c0-3.0938 2.5039-5.6016 5.6016-5.6016 3.0938 0 5.6016 2.5078 5.6016 5.6016v85.738c0 3.0938-2.5039 5.6016-5.6016 5.6016-3.0977 0-5.6016-2.5078-5.6016-5.5977zm23.699-16.539v-52.668c0-3.0938 2.5039-5.6016 5.6016-5.6016 3.0938 0 5.6016 2.5078 5.6016 5.6016v52.668c0 3.0938-2.5039 5.6016-5.6016 5.6016-3.0977 0-5.6016-2.5078-5.6016-5.6016zm-211.48-212.4h-91.27c-6.1758 0-11.199 5.0234-11.199 11.199v492.8c0 6.1758 5.0234 11.199 11.199 11.199l91.27 0.003906c6.1758 0 11.199-5.0273 11.199-11.199v-492.8c0-6.1797-5.0195-11.203-11.199-11.203zm0 504h-19.039v-28c0-3.0938-2.5078-5.6016-5.6016-5.6016s-5.6016 2.5039-5.6016 5.6016v28h-12.918l0.003906-61.598c0-3.0938-2.5078-5.6016-5.6016-5.6016s-5.6016 2.5039-5.6016 5.6016v61.602h-36.914l0.003906-492.8h45.035v46.898c0 3.0938 2.5078 5.6016 5.6016 5.6016s5.6016-2.5078 5.6016-5.6016l-0.003906-46.898h35.035zm-67.273-89.023v54.848c0 3.0938-2.5078 5.6016-5.6016 5.6016s-5.6016-2.5039-5.6016-5.6016v-54.848c0-3.0938 2.5078-5.6016 5.6016-5.6016s5.6016 2.5039 5.6016 5.6016zm45.629-348.46v-28.656c0-3.0938 2.5078-5.6016 5.6016-5.6016s5.6016 2.5078 5.6016 5.6016v28.656c0 3.0938-2.5078 5.6016-5.6016 5.6016s-5.6016-2.5078-5.6016-5.6016zm-21.512 225.78v62.129c0 3.0938-2.5078 5.6016-5.6016 5.6016s-5.6016-2.5039-5.6016-5.6016l0.003906-62.129c0-3.0938 2.5078-5.6016 5.6016-5.6016 3.0898 0.003906 5.5977 2.5078 5.5977 5.6016zm12.918 31.07v-38.168c0-3.0938 2.5078-5.6016 5.6016-5.6016s5.6016 2.5078 5.6016 5.6016v38.168c0 3.0938-2.5078 5.6016-5.6016 5.6016-3.0938-0.003906-5.6016-2.5078-5.6016-5.6016zm-6.1797-196.96v85.742c0 3.0938-2.5078 5.6016-5.6016 5.6016s-5.6016-2.5078-5.6016-5.6016l0.003906-85.742c0-3.0938 2.5078-5.6016 5.6016-5.6016 3.0898 0 5.5977 2.5078 5.5977 5.6016zm-22.82 16.539v52.668c0 3.0938-2.5078 5.6016-5.6016 5.6016s-5.6016-2.5078-5.6016-5.6016v-52.668c0-3.0938 2.5078-5.6016 5.6016-5.6016s5.6016 2.5078 5.6016 5.6016zm-70.766-142.94h-91.27c-6.1758 0-11.199 5.0234-11.199 11.199v492.8c0 6.1758 5.0234 11.199 11.199 11.199h91.27c6.1758 0 11.199-5.0273 11.199-11.199l0.003906-492.8c0-6.1797-5.0234-11.203-11.203-11.203zm0 504h-20.449v-47.523c0-3.0938-2.5078-5.6016-5.6016-5.6016s-5.6016 2.5039-5.6016 5.6016l0.007813 47.523h-21.344v-26.027c0-3.0938-2.5078-5.6016-5.6016-5.6016s-5.6016 2.5039-5.6016 5.6016v26.027h-27.078v-492.8h19.039v28c0 3.0938 2.5078 5.6016 5.6016 5.6016s5.6016-2.5078 5.6016-5.6016l-0.003906-28h12.918v61.602c0 3.0938 2.5078 5.6016 5.6016 5.6016s5.6016-2.5078 5.6016-5.6016l-0.003906-61.602h12.918v49.246c0 3.0938 2.5078 5.6016 5.6016 5.6016s5.6016-2.5078 5.6016-5.6016l-0.003907-49.246h12.797zm-36.914-343.22v62.129c0 3.0938-2.5078 5.6016-5.6016 5.6016s-5.6016-2.5078-5.6016-5.6016l0.003906-62.129c0-3.0938 2.5078-5.6016 5.6016-5.6016s5.5977 2.5078 5.5977 5.6016zm-24.117 31.062v38.164c0 3.0938-2.5078 5.6016-5.6016 5.6016s-5.6016-2.5078-5.6016-5.6016v-38.164c0-3.0938 2.5078-5.6016 5.6016-5.6016 3.0977 0.003906 5.6016 2.5117 5.6016 5.6016zm17.383 111.22v85.738c0 3.0938-2.5078 5.6016-5.6016 5.6016s-5.6016-2.5039-5.6016-5.6016v-85.738c0-3.0938 2.5078-5.6016 5.6016-5.6016 3.0938 0.003906 5.6016 2.5078 5.6016 5.6016zm22.82 16.539v52.664c0 3.0938-2.5078 5.6016-5.6016 5.6016s-5.6016-2.5039-5.6016-5.6016v-52.664c0-3.0938 2.5078-5.6016 5.6016-5.6016s5.6016 2.5039 5.6016 5.6016zm280.84-319.6h-91.273c-6.1758 0-11.199 5.0234-11.199 11.199v492.8c0 6.1758 5.0234 11.199 11.199 11.199h91.273c6.1758 0 11.199-5.0273 11.199-11.199v-492.8c0-6.1797-5.0234-11.203-11.199-11.203zm0 504h-27.082v-26.027c0-3.0938-2.5039-5.6016-5.6016-5.6016-3.0938 0-5.6016 2.5039-5.6016 5.6016v26.027l-52.992 0.003906 0.003906-492.8h91.273zm-54.348-427.64v-48.363c0-3.0938 2.5039-5.6016 5.6016-5.6016 3.0938 0 5.6016 2.5078 5.6016 5.6016v48.359c0 3.0938-2.5039 5.6016-5.6016 5.6016s-5.6016-2.5078-5.6016-5.5977zm34.637-14.957v-24.18c0-3.0938 2.5039-5.6016 5.6016-5.6016 3.0938 0 5.6016 2.5078 5.6016 5.6016v24.18c0 3.0938-2.5039 5.6016-5.6016 5.6016-3.0938 0-5.6016-2.5078-5.6016-5.6016zm-58.766 27.832v-37.055c0-3.0938 2.5039-5.6016 5.6016-5.6016 3.0938 0 5.6016 2.5078 5.6016 5.6016v37.055c0 3.0938-2.5039 5.6016-5.6016 5.6016-3.0977 0-5.6016-2.5078-5.6016-5.6016zm18.852 350.44v50.152c0 3.0938-2.5039 5.6016-5.6016 5.6016-3.0938 0-5.6016-2.5039-5.6016-5.6016v-50.152c0-3.0938 2.5039-5.6016 5.6016-5.6016s5.6016 2.5039 5.6016 5.6016zm51.109-81.594v28.656c0 3.0938-2.5039 5.6016-5.6016 5.6016-3.0938 0-5.6016-2.5039-5.6016-5.6016v-28.656c0-3.0938 2.5039-5.6016 5.6016-5.6016 3.0977 0 5.6016 2.5039 5.6016 5.6016zm-34.645-214.11c3.0938 0 5.6016 2.5078 5.6016 5.6016v62.129c0 3.0938-2.5039 5.6016-5.6016 5.6016-3.0938 0-5.6016-2.5078-5.6016-5.6016l0.003906-62.133c0-3.0898 2.5039-5.5977 5.5977-5.5977zm18.52 74.828v-38.164c0-3.0938 2.5039-5.6016 5.6016-5.6016 3.0938 0 5.6016 2.5078 5.6016 5.6016v38.164c0 3.0938-2.5039 5.6016-5.6016 5.6016s-5.6016-2.5078-5.6016-5.6016zm-11.777 73.055v85.738c0 3.0938-2.5039 5.6016-5.6016 5.6016-3.0938 0-5.6016-2.5039-5.6016-5.6016l0.003906-85.738c0-3.0938 2.5039-5.6016 5.6016-5.6016 3.0938 0 5.5977 2.5078 5.5977 5.6016zm-28.426 10.938c3.0938 0 5.6016 2.5039 5.6016 5.6016v52.664c0 3.0938-2.5039 5.6016-5.6016 5.6016-3.0938 0-5.6016-2.5039-5.6016-5.6016v-52.664c0.003906-3.0977 2.5078-5.6016 5.6016-5.6016z"/>
</svg>
