<?xml version="1.0" encoding="UTF-8"?>
<svg width="700pt" height="700pt" version="1.1" viewBox="0 0 700 700" xmlns="http://www.w3.org/2000/svg" xmlns:xlink="http://www.w3.org/1999/xlink">
  <path d="m170.59 70.953c-3.7031 0.050781-7.1445 1.9297-9.1914 5.0195l-55.941 84.527c-1.2148 1.832-1.8594 3.9844-1.8594 6.1797v311.17c0 6.1836 5.0117 11.199 11.199 11.199h111.8-0.003906c6.1875 0 11.199-5.0156 11.199-11.199v-88.828h45.109v88.828c0.003906 6.1836 5.0156 11.199 11.199 11.199h111.8c6.1836 0 11.199-5.0156 11.199-11.199v-88.828h45.109v88.828c0 6.1836 5.0156 11.199 11.199 11.199h111.8c6.1836 0 11.195-5.0156 11.195-11.199v-311.17c0-2.1953-0.64453-4.3438-1.8516-6.1758l-55.852-84.531-0.003906 0.003906c-2.0742-3.1367-5.582-5.0234-9.3398-5.0234-3.7578-0.003906-7.2656 1.8828-9.3438 5.0156l-55.941 84.527v0.003906c-1.2109 1.832-1.8594 3.9805-1.8594 6.1797v52.152h-45.109v-52.152c0-2.1953-0.64453-4.3438-1.8555-6.1758l-55.852-84.527c-2.0742-3.1367-5.582-5.0234-9.3438-5.0234-3.7578 0-7.2656 1.8828-9.3398 5.0195l-55.941 84.527c-1.2148 1.832-1.8633 3.9844-1.8633 6.1797v52.152h-45.109v-52.152c0-2.1953-0.64453-4.3398-1.8555-6.1719l-55.852-84.531c-2.1016-3.1797-5.6797-5.0742-9.4922-5.0234zm358.75 31.5 44.66 67.594v296.61h-89.398v-296.61zm-358.61 0 44.66 67.59v296.61h-89.398v-296.61l44.734-67.594zm179.3 0 44.66 67.59v296.61h-89.398v-296.6l44.738-67.598zm-112.25 138.78h45.109v125.39h-45.109zm179.3 0h45.109v125.39h-45.109z" fill-rule="evenodd"/>
</svg>
