<?xml version="1.0" encoding="UTF-8"?>
<svg width="700pt" height="700pt" version="1.1" viewBox="0 0 700 700" xmlns="http://www.w3.org/2000/svg" xmlns:xlink="http://www.w3.org/1999/xlink">
  <path d="m215.01 358.4h12.379v53.051h-12.379z"/>
  <path d="m298.12 358.4h12.379v53.051h-12.379z"/>
  <path d="m563.39 358.4h12.379v53.051h-12.379z"/>
  <path d="m530.38 318.32h16.504v-12.379h-16.504c-0.58984-42.441-4.125-58.949-31.242-58.949-18.863 0-29.473 11.199-29.473 30.652h12.379c0-12.969 4.7148-18.273 17.094-18.273 15.328 0 18.273 6.4844 18.863 46.57h-16.504v12.379h16.504v3.5352h-116.12v-22.988h11.199v-12.379h-11.199v-11.789h-91.371v11.789h-11.199v12.379h11.199v22.988h-68.379v-76.043h-133.22v76.043h-26.527v180.38h535.83v-180.38h-87.832v-3.5352zm-409.09-60.125h108.46v63.074l-108.46-0.003906zm134.99 231.07h-161.52v-155.03h161.52zm67.199-202.78h65.43v35.367h-65.43zm107.29 202.78h-161.52v-155.03h162.1l0.003906 155.03zm174.48 0h-161.52v-155.03h162.11v155.03z"/>
  <path d="m145.45 315.96h78.988v-52.465l-78.988 0.003906zm12.379-39.492h53.641v27.117h-53.641z"/>
  <path d="m124.82 267.62h12.379v25.348h-12.379z"/>
  <path d="m346.46 231.66c2.9492-2.3594 3.5352-5.8945 1.1797-8.8438-2.3594-2.9492-5.8945-3.5352-8.8438-1.1797-4.125 3.5352-9.4297 7.6641-9.4297 13.559 0 5.3047 3.5352 8.2539 5.3047 10.02l1.1797 1.1797c0 0.58984-0.58984 1.1797-1.7695 2.3594-1.7695 1.7695-4.7148 4.7148-4.125 9.4297 0.58984 4.7148 4.7148 8.8438 8.2539 11.789 1.1797 0.58984 2.3594 1.1797 3.5352 1.1797 1.7695 0 3.5352-0.58984 4.7148-2.3594 2.3594-2.9492 1.7695-6.4844-1.1797-8.8438-1.1797-1.1797-2.3594-1.7695-2.9492-2.3594 1.7695-2.3594 5.3047-5.8945 5.3047-11.199 0-4.7148-3.5352-8.2539-5.3047-10.02l-0.58984-0.58984c1.1797-1.7656 2.3594-2.9414 4.7188-4.1211z"/>
  <path d="m380.06 219.29c2.9492-2.3594 3.5352-5.8945 1.1797-8.8438-2.3594-2.9492-5.8945-3.5352-8.8438-1.1797-4.125 3.5352-9.4297 7.6641-9.4297 13.559 0 5.3047 3.5352 8.2539 5.3047 10.02 0.58984 0.58984 0.58984 0.58984 1.1797 1.1797 0 0.58984-0.58984 1.1797-1.7695 2.3594-1.7695 1.7695-4.7148 4.7148-4.125 9.4297s4.7148 8.8438 8.2539 11.789c1.1797 0.58984 2.3594 1.1797 3.5352 1.1797 1.7695 0 3.5352-0.58984 4.7148-2.3594 2.3594-2.9492 1.7695-6.4844-1.1797-8.8438-1.1797-1.1797-2.3594-1.7695-2.9492-2.3594 1.7695-2.3594 5.3047-5.8945 5.3047-11.199 0-4.7148-3.5352-8.2539-5.3047-10.02l-0.58984-0.58984c1.7734-1.1758 2.9492-2.3555 4.7188-4.1211z"/>
  <path d="m194.97 159.16h37.137v12.379h-37.137z"/>
  <path d="m440.78 58.359v132.04l-33.602-47.156 0.003907-84.887h-114.36v84.883l-29.473 41.262v-126.14h-180.97v134.4h535.84l-0.003906-134.4zm-189.81 121.43h-156.21v-109.05h156.21zm54.82-109.05h88.422v67.789h-88.422zm-23.578 109.05 20.633-28.883h94.906l20.633 28.883zm323.03 0h-152.09v-109.05h152.09z"/>
  <path d="m551.01 159.16h37.137v12.379h-37.137z"/>
</svg>
