<?xml version="1.0" encoding="UTF-8"?>
<svg width="700pt" height="700pt" version="1.1" viewBox="0 0 700 700" xmlns="http://www.w3.org/2000/svg" xmlns:xlink="http://www.w3.org/1999/xlink">
  <path d="m81.668 408.33c-3.2656 0-6.4883-1.375-8.7969-4.0117-4.2227-4.8516-3.7109-12.203 1.1445-16.473l268.33-233.33c4.3867-3.8281 10.922-3.8281 15.309 0l62.348 54.203v-45.383c0-6.4414 5.25-11.668 11.668-11.668h70c6.418 0 11.668 5.25 11.668 11.668v126.58l112.65 97.953c4.8516 4.2461 5.3672 11.621 1.1445 16.496-4.2227 4.875-11.621 5.3438-16.473 1.1445l-116.67-101.45c-2.5195-2.2383-4.0117-5.4141-4.0117-8.7969v-120.26h-46.668v59.312c0 4.5742-2.6602 8.7031-6.8125 10.617-4.1289 1.8906-9.0312 1.1914-12.508-1.8203l-74.012-64.328-260.68 226.68c-2.1914 1.9375-4.8984 2.8711-7.6289 2.8711z"/>
</svg>
